<svg viewBox="0 0 256 256" fill="none" xmlns="http://www.w3.org/2000/svg">
<path d="M128 0C57.312 0 0 57.312 0 128C0 198.688 57.312 256 128 256C198.688 256 256 198.688 256 128C256 57.312 198.688 0 128 0ZM128 32C169.656 32 204.84 58.832 218.128 96H37.872C51.16 58.832 86.344 32 128 32ZM128 144C119.16 144 112 136.84 112 128C112 119.16 119.16 112 128 112C136.84 112 144 119.16 144 128C144 136.84 136.84 144 128 144ZM32 128C75.72 128 111.128 170.128 111.872 222.376C66.624 214.624 32 175.408 32 128ZM144.128 222.376C144.872 170.128 180.28 128 224 128C224 175.408 189.376 214.624 144.128 222.376Z" fill="white"/>
</svg>
